<?xml version="1.0" standalone="no"?>
<!DOCTYPE svg PUBLIC "-//W3C//DTD SVG 20010904//EN"
 "http://www.w3.org/TR/2001/REC-SVG-20010904/DTD/svg10.dtd">
<svg version="1.0" xmlns="http://www.w3.org/2000/svg"
 width="16.000000pt" height="16.000000pt" viewBox="0 0 16.000000 16.000000"
 preserveAspectRatio="xMidYMid meet">
<metadata>
Created by potrace 1.11, written by Peter Selinger 2001-2013
</metadata>
<g transform="translate(0.000000,16.000000) scale(0.003125,-0.003125)"
fill="#000000" stroke="none">
<path d="M1471 5109 c8 -5 9 -9 3 -9 -15 0 -36 -52 -34 -82 1 -12 1 -25 0 -28
-1 -3 -4 -18 -6 -35 -3 -16 -9 -34 -14 -40 -4 -5 -11 -27 -15 -47 -7 -35 -26
-50 -39 -29 -3 5 -16 11 -28 14 -13 3 -40 10 -60 15 -43 11 -45 10 -22 -13 9
-9 14 -18 12 -21 -7 -7 -39 7 -34 15 6 9 -16 25 -39 29 -11 2 -22 8 -23 13 -2
5 -8 7 -13 4 -5 -4 -6 1 -3 9 9 23 -9 20 -24 -4 -9 -14 -20 -19 -43 -16 -24 3
-29 0 -24 -12 4 -12 3 -13 -10 -2 -12 10 -21 10 -40 2 -15 -7 -27 -8 -30 -2
-4 6 -18 4 -35 -5 -16 -8 -38 -15 -50 -15 -11 0 -20 -4 -20 -10 0 -5 -8 -10
-19 -10 -28 0 -96 -31 -85 -38 5 -4 16 -16 24 -27 8 -11 0 -7 -17 8 -37 34
-39 35 -63 6 -11 -12 -26 -19 -34 -16 -9 4 -20 -1 -25 -11 -6 -9 -11 -12 -11
-7 0 6 -4 4 -8 -3 -8 -12 -40 -23 -74 -25 -9 -1 -14 -5 -12 -9 5 -8 -10 -12
-35 -9 -7 2 -10 -2 -6 -8 7 -12 -17 -41 -34 -41 -6 0 -11 -9 -11 -19 0 -23
-22 -40 -28 -23 -6 19 -21 14 -50 -19 -15 -16 -35 -31 -44 -33 -9 -1 -33 -19
-52 -39 -20 -22 -49 -40 -67 -44 -28 -5 -30 -7 -14 -14 18 -7 17 -8 -5 -8 -20
-1 -22 -3 -10 -11 12 -7 8 -12 -17 -21 -18 -6 -31 -15 -28 -20 3 -4 -5 -11
-19 -15 -14 -3 -28 -15 -31 -25 -4 -11 -9 -17 -13 -15 -4 2 -13 -2 -20 -10 -7
-8 -10 -14 -7 -14 4 0 -9 -16 -29 -35 l-36 -35 0 -314 c0 -209 4 -317 10 -321
8 -5 8 -11 0 -20 -13 -16 -14 -3451 0 -3460 5 -3 7 -12 3 -21 -3 -9 0 -14 8
-12 8 2 15 -7 17 -22 2 -14 11 -33 19 -42 8 -9 12 -21 8 -27 -4 -8 173 -11
584 -11 325 0 591 3 591 8 -1 25 -32 153 -46 187 -9 22 -20 49 -25 60 -12 29
-8 72 6 72 7 0 12 -7 11 -16 -1 -10 6 -15 18 -13 18 3 18 3 2 -13 -15 -16 -15
-19 -1 -35 8 -9 12 -19 9 -23 -3 -3 -1 -14 5 -24 9 -16 10 -16 11 5 0 13 4 21
9 17 5 -3 9 -19 9 -36 -1 -17 5 -35 13 -40 8 -5 10 -9 5 -9 -5 0 -2 -8 7 -18
10 -10 14 -22 11 -25 -4 -4 1 -9 10 -13 9 -3 16 -14 16 -23 0 -14 -2 -14 -10
-1 -7 11 -10 12 -10 2 0 -8 9 -16 20 -19 11 -3 17 -10 13 -16 -4 -6 0 -8 10
-4 11 4 14 2 10 -8 -4 -13 242 -15 1840 -15 1839 0 1845 0 1850 20 3 11 1 18
-4 14 -5 -3 -9 2 -9 10 0 9 5 16 11 16 5 0 7 5 4 10 -4 6 -2 16 3 23 5 7 14
28 20 47 11 33 11 34 -5 12 -8 -12 -25 -22 -37 -21 -19 0 -19 1 4 11 15 6 20
12 13 15 -7 3 -13 9 -13 14 0 6 4 8 8 5 5 -3 16 4 25 15 13 15 15 24 8 37 -9
15 -10 14 -11 -5 0 -13 -5 -23 -11 -23 -11 0 -3 36 11 55 5 6 11 27 15 47 4
21 10 38 14 38 4 0 8 16 9 37 1 33 0 35 -13 17 -13 -17 -14 -16 -8 20 4 27 2
41 -8 47 -11 7 -10 9 4 9 10 0 15 4 12 10 -3 5 -1 10 5 10 8 0 10 9 5 27 -9
39 -25 53 -25 23 0 -17 -3 -21 -8 -12 -5 7 -16 10 -25 6 -12 -4 -17 -1 -17 12
0 16 2 17 10 4 6 -10 10 -11 10 -3 0 7 5 12 11 10 6 -1 18 8 26 21 15 21 14
23 -13 32 -23 8 -29 17 -30 40 -2 36 9 39 24 8 11 -23 11 -23 11 3 1 27 -29
45 -46 28 -11 -11 -15 61 -4 75 6 7 6 17 1 26 -6 8 -10 26 -11 40 0 23 -1 23
-9 5 -9 -22 -14 -8 -11 32 3 26 -18 41 -30 22 -6 -9 -7 -4 -3 15 8 34 -12 28
-26 -8 -7 -16 -9 -17 -9 -4 -1 9 4 20 9 23 6 3 10 15 10 26 0 13 4 18 12 13 7
-4 8 -3 4 4 -4 7 -13 12 -21 12 -8 0 -11 7 -8 20 4 14 0 20 -10 20 -10 0 -13
6 -10 20 4 15 -2 22 -21 30 -15 5 -25 14 -22 18 7 12 -42 62 -62 62 -13 0 -14
2 -4 9 11 7 11 9 -2 14 -22 9 -20 29 4 55 11 12 20 26 20 33 0 20 71 194 82
200 6 4 34 10 62 13 28 3 77 18 108 34 l57 27 1 1503 0 1502 -21 0 c-12 0 -23
8 -26 20 -6 21 -28 27 -38 11 -3 -5 -1 -12 5 -16 5 -3 10 -11 10 -17 0 -7 -5
-6 -15 2 -8 7 -22 10 -30 6 -8 -3 -15 0 -16 7 0 7 -4 3 -9 -8 -8 -19 -9 -19
-9 2 -1 16 -6 21 -21 18 -11 -2 -20 1 -20 6 0 6 -5 7 -10 4 -6 -4 -7 -11 -4
-17 5 -7 -1 -9 -16 -5 -12 3 -33 2 -46 -3 -16 -6 -24 -6 -24 1 0 6 -7 6 -17 2
-28 -13 -98 1 -87 18 8 14 -3 10 -20 -7 -9 -9 -16 -11 -16 -4 0 6 -4 8 -10 5
-5 -3 -10 1 -10 10 0 9 -4 13 -10 10 -7 -4 -7 2 -1 18 6 14 7 28 4 31 -3 3 0
12 7 21 7 8 10 15 6 15 -3 0 3 15 14 33 11 17 20 41 20 53 0 11 9 29 19 38 11
10 25 31 31 47 7 16 17 29 23 29 6 0 8 3 4 6 -6 6 38 103 52 114 3 3 6 10 6
15 1 18 28 65 37 65 5 0 6 5 3 10 -3 6 -2 10 3 10 5 0 19 9 32 20 l23 20
-1689 -2 c-1481 -3 -1689 -5 -1686 -18 3 -12 0 -12 -15 2 -10 9 -35 16 -57 16
-26 0 -34 -3 -25 -9z m89 -39 c0 -5 -2 -10 -4 -10 -3 0 -8 5 -11 10 -3 6 -1
10 4 10 6 0 11 -4 11 -10z m-23 -52 c-3 -8 -6 -5 -6 6 -1 11 2 17 5 13 3 -3 4
-12 1 -19z m-87 -123 c-7 -9 -15 -13 -19 -10 -3 3 1 10 9 15 21 14 24 12 10
-5z m-505 -93 c-3 -3 -11 0 -18 7 -9 10 -8 11 6 5 10 -3 15 -9 12 -12z m-15
-21 c0 -4 -8 -7 -19 -7 -11 0 -17 6 -14 13 5 12 33 7 33 -6z m-184 -16 c-3
-23 -12 -26 -13 -5 -1 11 2 20 7 20 4 0 7 -7 6 -15z m1044 -125 c-8 -5 -22 -9
-30 -9 -10 0 -8 3 5 9 27 12 43 12 25 0z m-1233 -16 c-3 -3 -12 -4 -19 -1 -8
3 -5 6 6 6 11 1 17 -2 13 -5z m991 -11 c-10 -2 -26 -2 -35 0 -10 3 -2 5 17 5
19 0 27 -2 18 -5z m3062 -13 c-6 -11 -15 -20 -20 -20 -6 0 -5 9 2 20 7 11 16
20 21 20 4 0 3 -9 -3 -20z m-2863 -17 c0 -8 -6 -9 -19 -2 -10 5 -18 11 -18 12
0 2 8 3 18 3 10 0 19 -6 19 -13z m-390 -70 c2 -6 -6 -13 -18 -16 -12 -3 -18
-10 -14 -16 3 -6 11 -9 16 -6 5 4 9 1 9 -5 0 -7 -7 -9 -16 -6 -12 4 -15 2 -10
-9 3 -8 0 -15 -7 -16 -9 0 -9 -2 1 -6 6 -2 10 -9 6 -14 -9 -14 19 -10 43 6 13
9 24 11 28 6 3 -6 11 -9 18 -7 7 1 8 1 4 -2 -4 -2 -2 -11 5 -20 11 -15 11 -15
-4 -4 -9 7 -18 9 -20 5 -3 -4 -3 -2 -2 5 5 18 -6 15 -27 -9 -10 -11 -16 -26
-13 -33 6 -17 -36 -29 -52 -15 -8 6 -13 3 -17 -11 -3 -11 -1 -18 4 -14 14 8
10 -6 -6 -22 -8 -9 -15 -12 -15 -7 0 4 -5 0 -11 -10 -6 -9 -15 -14 -21 -11 -7
5 -8 2 -3 -6 6 -10 4 -12 -8 -7 -10 3 -17 3 -17 -2 0 -19 15 -19 47 0 18 11
33 16 33 11 0 -6 -8 -13 -17 -16 -10 -3 0 -3 22 0 35 4 38 3 23 -9 -10 -8 -14
-18 -10 -23 4 -4 0 -3 -9 4 -17 13 -99 14 -99 1 0 -4 12 -6 28 -3 24 4 25 3 8
-7 -15 -9 -24 -9 -39 1 -17 10 -19 10 -14 -4 6 -14 3 -15 -16 -5 -12 6 -19 8
-14 4 4 -5 -12 -26 -35 -47 -43 -39 -75 -53 -45 -20 10 10 17 25 17 33 0 11 2
11 8 1 6 -9 12 -6 21 12 15 27 6 50 -15 42 -8 -3 -1 12 17 33 17 22 28 44 24
50 -3 6 0 11 7 12 10 0 11 2 0 6 -10 4 -10 8 -1 19 6 8 16 11 23 7 6 -3 2 4
-9 17 -11 13 -14 20 -7 16 6 -4 12 -3 12 3 0 6 11 13 25 17 14 3 25 10 25 16
0 5 -5 6 -12 2 -6 -4 -8 -3 -4 4 3 6 22 16 41 22 19 6 33 16 29 21 -3 5 -2 8
3 7 4 -2 23 3 41 11 25 10 30 16 20 23 -10 8 -10 9 1 6 8 -3 16 -9 18 -15z
m3530 11 c-3 -3 -12 -4 -19 -1 -8 3 -5 6 6 6 11 1 17 -2 13 -5z m-3462 -14
c-3 -5 -12 -10 -18 -10 -7 0 -6 4 3 10 19 12 23 12 15 0z m-495 -42 c0 -4 -9
-8 -20 -8 -11 0 -20 4 -20 8 0 4 9 8 20 8 11 0 20 -4 20 -8z m450 -12 c0 -2
-7 -7 -16 -10 -8 -3 -12 -2 -9 4 6 10 25 14 25 6z m-1035 -66 c-3 -5 -10 -10
-16 -10 -5 0 -9 5 -9 10 0 6 7 10 16 10 8 0 12 -4 9 -10z m240 -50 c3 -6 -1
-7 -9 -4 -18 7 -21 14 -7 14 6 0 13 -4 16 -10z m830 -91 c-4 -5 -12 -9 -18 -8
-9 0 -8 2 1 6 6 2 9 10 6 15 -4 7 -2 8 5 4 6 -4 9 -12 6 -17z m42 -5 c-9 -9
-28 6 -21 18 4 6 10 6 17 -1 6 -6 8 -13 4 -17z m-92 -23 c3 -5 1 -12 -5 -16
-6 -4 -8 -11 -4 -16 4 -6 14 -3 27 8 14 12 18 13 12 3 -7 -12 -6 -13 6 -4 10
8 21 7 39 -3 l25 -15 -25 6 -25 5 24 -20 c26 -21 24 -23 -11 -10 -17 6 -29 5
-43 -6 -12 -9 -14 -14 -5 -11 8 3 21 0 28 -8 10 -11 6 -14 -23 -20 -35 -6 -45
-18 -22 -27 6 -3 3 -5 -8 -5 -31 0 -124 -29 -151 -47 -23 -15 -25 -43 -2 -29
8 5 9 1 4 -11 -5 -15 -4 -16 9 -5 23 19 18 3 -7 -20 -12 -11 -18 -20 -13 -20
4 0 0 -9 -10 -20 -10 -11 -15 -20 -11 -20 4 0 -3 -17 -15 -37 -13 -20 -17 -33
-11 -29 7 4 2 -9 -9 -29 l-21 -36 73 56 c41 30 80 55 86 55 7 0 13 5 13 12 0
6 3 8 7 5 3 -4 17 0 30 8 13 9 23 13 23 9 0 -3 12 1 26 11 14 9 27 15 29 13 1
-2 8 -13 14 -26 11 -21 17 -23 52 -17 27 5 39 3 39 -5 0 -9 5 -9 17 1 11 9 14
10 9 2 -4 -7 -16 -18 -26 -23 -16 -8 -18 -8 -14 5 8 20 -5 19 -23 -2 -8 -10
-11 -12 -7 -4 6 12 0 13 -32 7 -21 -5 -47 -8 -57 -9 -11 -1 -15 -7 -12 -16 4
-10 2 -11 -7 -3 -18 14 -84 0 -80 -18 2 -7 -3 -10 -12 -7 -20 8 -42 -29 -23
-36 6 -3 0 -6 -15 -6 -16 -1 -37 -10 -48 -21 -11 -11 -25 -20 -31 -20 -5 0 -7
-5 -3 -12 4 -6 -2 -18 -12 -26 -18 -14 -18 -14 4 -9 13 3 29 -1 39 -11 16 -16
16 -16 10 1 -4 10 -2 17 6 17 8 0 8 3 -2 9 -9 6 -5 10 15 13 16 3 38 9 48 13
14 6 17 5 12 -3 -5 -8 -2 -10 8 -6 9 3 16 1 16 -5 0 -6 -3 -11 -7 -11 -5 0
-19 -3 -32 -7 -19 -5 -22 -3 -16 8 5 8 4 10 0 6 -14 -12 -15 -38 -2 -31 7 4 7
1 -1 -7 -11 -12 -14 -12 -23 1 -9 13 -10 13 -6 0 2 -8 -2 -23 -10 -32 -13 -15
-13 -16 5 -11 11 2 23 0 26 -6 6 -10 -29 -17 -57 -12 -5 1 -6 -3 -2 -9 3 -5 2
-10 -4 -10 -5 0 -13 -9 -16 -20 -4 -11 -11 -18 -16 -15 -5 4 -9 1 -9 -4 0 -14
13 -14 27 0 12 12 33 4 33 -13 0 -7 -4 -7 -12 0 -9 7 -17 6 -25 -3 -10 -11
-10 -15 0 -18 7 -3 -1 -6 -18 -7 -35 -1 -64 -20 -58 -37 3 -7 -1 -13 -9 -13
-8 0 -7 -4 5 -11 9 -5 22 -7 29 -3 7 4 8 3 4 -5 -6 -9 12 -11 67 -9 41 2 74 5
72 8 -2 3 17 13 41 22 28 10 41 11 35 4 -6 -7 -8 -23 -5 -37 5 -21 4 -22 -6
-6 -16 25 -30 21 -31 -10 -1 -17 -3 -21 -6 -10 -5 19 -18 22 -28 7 -3 -5 -1
-10 5 -10 6 0 8 -5 4 -12 -6 -9 -9 -9 -11 -1 -3 7 -12 9 -21 6 -14 -6 -15 -4
-5 8 9 12 3 14 -40 15 l-52 1 43 -14 c23 -8 42 -19 42 -24 0 -6 -13 -22 -30
-36 -16 -13 -30 -29 -30 -34 0 -5 14 -8 30 -7 17 1 30 5 30 8 0 7 62 31 67 26
9 -9 -89 -48 -111 -44 -15 3 -31 -1 -37 -8 -6 -8 -15 -11 -20 -8 -5 3 -6 -2
-2 -11 3 -9 9 -13 12 -8 3 5 20 6 36 2 21 -5 24 -7 10 -9 -11 -1 -23 -2 -27
-1 -5 0 -8 -4 -8 -9 0 -13 12 -13 46 0 20 8 30 8 38 -1 8 -9 8 -10 -1 -5 -7 4
-13 2 -13 -3 0 -14 2 -14 37 1 15 6 37 10 48 8 26 -3 62 -6 103 -8 32 -2 47
-22 16 -22 -10 0 -14 -6 -11 -14 6 -16 -26 -32 -53 -27 -12 2 -13 0 -2 -10 10
-11 8 -16 -10 -26 -22 -12 -22 -12 12 -14 33 -2 33 -2 -10 -9 l-45 -7 47 -1
c48 -2 81 5 74 17 -2 3 21 7 52 7 l57 2 -35 -14 c-38 -15 -38 -15 52 1 15 3
30 1 33 -5 3 -5 -1 -10 -10 -10 -10 0 -14 -5 -9 -12 6 -10 4 -10 -7 0 -7 6
-20 12 -28 12 -11 0 -10 -4 5 -16 19 -15 19 -16 -1 -8 -11 4 -33 9 -50 12 -16
3 -33 10 -37 16 -5 7 -8 6 -8 -4 0 -9 -16 -22 -35 -29 -30 -11 -34 -15 -25
-32 11 -19 11 -19 50 1 21 11 41 24 45 30 3 5 14 10 23 9 11 0 12 -2 4 -6 -13
-5 -7 -23 9 -23 6 0 7 5 3 11 -4 8 1 9 15 4 14 -4 31 -1 46 9 30 20 42 20 42
1 0 -10 -6 -13 -19 -9 -10 3 -18 0 -18 -6 0 -6 -3 -9 -8 -6 -4 2 -16 -2 -27
-11 -19 -13 -17 -14 17 -8 21 4 46 8 55 9 10 0 26 11 36 24 10 12 24 22 30 22
7 0 6 -4 -3 -10 -13 -8 -12 -10 3 -10 10 0 28 5 39 11 12 6 18 7 14 1 -3 -6 5
-9 19 -8 18 1 24 5 20 16 -4 8 -3 11 1 7 11 -10 34 13 34 34 0 16 -4 17 -26 8
-38 -14 -41 -4 -4 11 28 12 29 14 13 26 -17 13 -17 14 0 8 9 -3 17 -1 17 5 0
14 -23 14 -37 0 -8 -8 -13 -8 -18 0 -3 6 4 15 17 20 13 6 18 10 11 10 -19 1
-4 28 18 34 10 3 19 11 19 19 0 10 -2 11 -9 0 -6 -10 -10 -10 -20 2 -7 9 -11
21 -8 28 2 7 -5 24 -17 38 -19 22 -17 22 10 -3 17 -15 34 -24 38 -20 4 4 4 -1
0 -11 -5 -13 -4 -17 4 -12 6 3 14 2 17 -4 4 -6 16 -8 28 -4 12 4 30 7 40 6 15
-1 16 2 6 14 -6 8 -9 17 -5 21 8 8 12 3 21 -26 6 -21 5 -23 -14 -18 -11 3 -21
1 -21 -4 0 -17 33 -9 66 16 18 14 34 25 37 25 8 0 4 -35 -6 -41 -5 -4 -5 -9 2
-13 6 -4 11 -2 11 4 0 7 9 5 23 -5 12 -8 22 -21 22 -28 0 -6 11 -13 25 -13 14
-1 27 -2 30 -4 19 -7 60 -4 64 6 3 7 24 12 50 12 36 0 44 -3 39 -15 -5 -12 -7
-12 -15 -1 -7 9 -8 7 -5 -9 5 -23 -7 -28 -68 -25 -11 0 -14 -2 -7 -4 6 -3 9
-10 6 -16 -5 -7 6 -9 32 -4 30 5 35 4 21 -4 -10 -6 -31 -12 -47 -12 -17 -1
-27 -5 -23 -11 4 -6 0 -8 -10 -4 -11 4 -17 1 -17 -8 0 -8 -6 -16 -12 -16 -43
-4 -66 -9 -88 -18 -21 -9 -17 -10 24 -5 27 3 56 8 65 11 14 4 14 3 1 -6 -8 -6
-26 -11 -40 -12 -17 -1 -12 -4 15 -9 22 -4 45 -5 52 -3 7 3 13 -2 13 -11 0
-18 25 -22 35 -6 4 7 12 7 25 0 24 -13 83 -13 75 0 -3 6 -1 10 4 10 6 0 11 -4
11 -10 0 -5 8 -7 18 -3 15 5 14 4 -2 -9 -18 -15 -18 -15 3 -21 15 -4 21 -1 21
11 0 12 3 13 12 4 14 -14 52 -16 43 -2 -3 5 6 3 21 -5 15 -7 45 -12 68 -10
l41 4 -35 -13 c-19 -7 -41 -11 -47 -8 -7 2 -13 -1 -13 -8 0 -6 4 -9 9 -5 5 3
12 1 16 -4 3 -6 12 -8 19 -5 8 3 17 1 21 -5 9 -16 34 -13 52 4 16 17 33 12 33
-11 0 -8 -8 -14 -17 -15 -15 0 -15 -2 2 -9 29 -13 35 -12 29 5 -5 11 -2 13 9
9 9 -3 13 -12 10 -20 -3 -9 1 -14 12 -14 9 0 13 5 10 10 -3 6 1 10 10 10 8 0
18 -7 21 -15 4 -8 12 -15 19 -15 8 0 16 -4 19 -9 3 -4 -6 -6 -19 -3 -15 2 -25
0 -25 -7 0 -7 6 -11 13 -10 24 3 38 -1 33 -10 -3 -5 6 -12 22 -17 30 -8 29 -8
57 1 l20 7 -20 -17 c-12 -11 -14 -16 -5 -13 8 3 23 -4 34 -13 10 -10 41 -26
68 -35 26 -8 48 -18 48 -21 0 -3 -7 -2 -16 1 -9 3 -20 3 -26 0 -14 -9 26 -42
57 -48 15 -3 30 -8 34 -12 3 -4 -11 -4 -32 0 -27 5 -37 4 -32 -3 3 -6 14 -11
23 -11 9 0 24 -5 32 -10 11 -7 5 -8 -20 -4 -37 7 -90 34 -90 45 0 7 -49 23
-62 21 -4 -1 -5 5 -2 13 4 9 -1 18 -11 21 -9 4 -14 13 -11 21 3 8 1 11 -5 8
-5 -4 -16 -1 -24 5 -8 6 -23 9 -34 5 -11 -3 -36 2 -58 13 -65 33 -80 35 -102
13 -16 -16 -21 -17 -25 -5 -3 7 0 13 6 11 6 -1 13 4 15 11 5 12 -9 15 -61 14
-34 0 -55 -17 -21 -17 12 0 21 3 18 8 -2 4 1 7 6 7 6 0 11 -4 11 -9 0 -5 3
-18 6 -28 5 -15 4 -15 -5 -3 -8 11 -11 12 -11 2 0 -7 -4 -11 -9 -8 -5 3 -14
-1 -21 -9 -11 -13 -7 -15 21 -16 28 0 31 -2 14 -9 -11 -5 -14 -9 -7 -9 6 -1
12 -10 12 -21 0 -11 4 -20 10 -20 5 0 7 7 4 15 -4 8 -1 15 5 15 6 0 11 -4 11
-10 0 -5 8 -10 18 -10 13 0 14 -2 4 -9 -11 -7 -11 -9 1 -14 9 -3 20 0 26 7 7
8 22 11 38 8 25 -5 24 -6 -18 -23 -54 -22 -89 -24 -89 -5 0 8 -13 17 -29 21
-16 3 -50 19 -75 36 -46 29 -96 39 -96 18 0 -5 -4 -8 -8 -5 -5 3 -35 -2 -66
-10 -32 -8 -60 -13 -63 -10 -3 2 12 8 33 12 36 7 37 8 14 15 -24 7 -24 7 5 9
26 1 27 3 10 10 -18 8 -17 9 8 9 15 1 27 6 27 12 0 7 -20 9 -57 6 -32 -2 -46
-2 -30 0 40 6 33 21 -15 34 -53 14 -75 15 -110 6 -16 -4 -28 -3 -28 2 0 5 17
13 38 19 l37 10 -55 3 -55 2 60 7 c45 5 51 7 25 9 -19 2 -46 7 -60 12 -25 9
-25 9 3 5 15 -2 27 1 27 6 0 6 -16 8 -35 6 -19 -2 -35 -1 -35 3 0 3 -19 5 -42
3 -38 -2 -39 -2 -13 5 17 5 24 9 18 10 -7 0 -13 6 -13 12 0 8 5 8 15 -1 14
-11 39 -13 160 -9 35 1 37 2 15 9 -14 5 -53 8 -87 9 -35 1 -63 4 -63 9 0 4 29
6 65 5 39 -1 63 2 60 8 -4 5 -16 9 -28 10 -21 0 -21 1 -2 9 19 8 19 9 -2 9
-13 1 -23 5 -23 10 0 5 -15 12 -32 15 l-33 7 24 19 c13 11 18 20 12 20 -7 0
-10 4 -7 9 3 5 -15 11 -42 13 -26 3 -56 8 -66 13 -14 6 -17 5 -12 -3 4 -7 5
-12 2 -12 -2 0 -12 -3 -22 -7 -12 -4 -15 -3 -10 5 4 7 2 12 -3 12 -16 0 -13
-16 4 -30 8 -7 13 -16 10 -20 -3 -5 7 -8 22 -8 16 0 42 -1 58 -2 27 -3 26 -3
-10 -9 l-40 -6 25 -22 c13 -13 20 -23 16 -23 -4 0 -18 12 -32 27 -31 33 -41
25 -13 -10 14 -18 16 -25 6 -21 -9 3 -20 18 -27 34 -15 37 -28 41 -64 21 -38
-21 -50 -49 -15 -31 22 10 23 10 6 -4 -24 -19 -53 -10 -36 10 8 9 8 14 1 14
-6 0 -13 -4 -16 -9 -3 -5 -19 -7 -36 -5 -19 2 -29 0 -25 -6 3 -6 17 -10 31
-10 14 0 23 -4 20 -8 -6 -10 -32 -8 -59 3 -11 5 -23 3 -30 -5 -10 -10 -8 -12
5 -7 10 3 20 2 24 -4 3 -6 12 -8 20 -5 7 3 16 0 20 -5 4 -7 -3 -10 -17 -8 -13
2 -35 -1 -49 -6 -14 -4 -46 -8 -72 -8 -26 1 -46 -3 -43 -7 7 -11 -24 -22 -38
-14 -8 5 -9 4 -2 -4 6 -6 25 -8 50 -3 41 7 92 -8 77 -24 -4 -5 -1 -5 6 -1 15
9 6 26 -14 26 -20 0 -17 15 4 17 9 1 32 4 49 6 18 3 30 0 27 -5 -3 -5 5 -6 19
-3 19 5 28 2 36 -13 15 -28 14 -32 -6 -32 -16 -1 -16 -2 1 -12 19 -11 19 -11
1 -24 -10 -8 -13 -14 -7 -14 10 0 10 -5 2 -21 -7 -11 -9 -27 -6 -35 3 -8 0
-14 -7 -14 -7 -1 2 -12 18 -25 31 -26 24 -35 -9 -10 -16 12 -20 12 -33 0 -8
-8 -11 -19 -8 -25 3 -5 1 -10 -6 -10 -8 0 -8 -5 2 -16 8 -10 15 -12 17 -5 2 6
7 9 12 6 4 -3 7 3 6 13 0 9 6 17 14 17 9 0 14 -7 12 -19 -2 -11 1 -15 8 -11 8
5 9 -7 4 -40 -5 -37 -3 -46 8 -43 7 3 12 13 11 22 0 11 4 15 12 12 9 -3 12 0
9 9 -7 16 13 55 27 55 6 0 7 -4 4 -10 -4 -6 1 -7 11 -3 14 5 13 8 -7 19 -13 7
-18 13 -12 14 7 0 12 3 12 8 -4 21 3 32 19 33 14 0 14 2 -3 9 -11 5 -14 9 -7
9 7 1 21 -5 32 -11 19 -12 19 -13 -3 -26 -12 -7 -14 -11 -5 -8 10 3 20 1 23
-4 4 -6 2 -10 -3 -10 -5 0 -9 -8 -9 -17 1 -46 -4 -74 -10 -70 -5 3 -9 -5 -10
-16 -6 -55 -10 -73 -21 -94 -21 -38 -64 -242 -54 -257 3 -5 0 -6 -6 -2 -12 7
-17 -9 -26 -71 -2 -18 0 -33 5 -33 5 0 9 -9 9 -20 0 -11 -5 -20 -11 -20 -5 0
-7 5 -4 10 3 6 2 10 -4 10 -10 0 -41 -97 -46 -145 -1 -16 -6 -39 -11 -49 -5
-14 -4 -17 4 -12 7 4 12 1 12 -8 0 -9 5 -16 10 -16 6 0 10 -7 10 -15 0 -8 6
-15 14 -15 17 0 30 -30 13 -31 -8 0 -7 -2 2 -6 11 -5 11 -7 0 -15 -10 -7 -5
-8 15 -3 l30 6 -23 -18 -23 -19 36 -19 c20 -11 36 -23 36 -27 0 -5 3 -7 8 -6
15 3 42 -15 35 -25 -4 -6 -1 -7 6 -2 14 8 181 -73 181 -88 0 -5 -8 -6 -17 -3
-35 11 -228 56 -238 56 -21 -1 22 -17 90 -35 39 -10 75 -22 82 -27 7 -5 17 -7
22 -4 5 4 12 2 16 -4 4 -6 10 -8 14 -5 5 2 57 -9 116 -25 68 -18 120 -26 139
-23 24 5 28 3 23 -10 -4 -10 -2 -17 3 -17 6 0 10 5 10 11 0 7 10 9 28 5 15 -4
37 -7 49 -7 12 1 24 -3 27 -8 3 -4 16 -6 30 -4 13 3 27 0 30 -6 4 -5 13 -8 21
-4 8 3 23 2 33 -2 9 -4 33 -9 52 -11 19 -2 53 -6 75 -9 22 -2 64 -6 94 -7 63
-3 85 -27 27 -29 -20 -1 -42 -2 -48 -3 -7 -2 -27 3 -45 10 -34 13 -45 10 -36
-12 4 -10 -4 -14 -28 -14 -46 0 -32 -9 23 -14 51 -5 88 -21 88 -37 0 -6 15 1
33 15 39 32 66 52 90 69 21 14 146 5 156 -12 4 -5 31 -5 66 0 33 5 94 9 135 9
41 0 134 6 205 12 117 10 236 5 222 -9 -3 -3 -66 -7 -139 -8 -298 -7 -648 -36
-702 -59 -83 -34 -68 -194 26 -282 107 -101 339 -135 537 -78 29 8 56 13 59
10 3 -3 0 -6 -7 -6 -7 0 -9 -5 -5 -12 5 -8 2 -9 -11 -5 -14 6 -16 3 -12 -13 3
-11 0 -18 -7 -17 -6 1 -10 -3 -9 -10 2 -7 -4 -10 -13 -6 -8 3 -14 2 -13 -3 4
-22 -2 -35 -13 -28 -8 5 -9 2 -5 -9 3 -9 0 -20 -8 -24 -14 -8 -15 -11 -15 -40
0 -9 -3 -14 -6 -10 -11 11 -31 -17 -27 -38 4 -15 2 -16 -5 -7 -8 12 -13 12
-31 0 -12 -7 -19 -19 -16 -25 2 -7 0 -13 -6 -13 -6 0 -8 -3 -6 -7 2 -5 -15
-24 -39 -43 -23 -19 -43 -44 -44 -55 -1 -11 -4 -15 -6 -9 -5 12 -26 -3 -81
-53 -13 -13 -28 -23 -32 -23 -5 0 -14 -7 -21 -15 -7 -8 -15 -13 -19 -10 -4 2
-14 -5 -21 -16 -8 -10 -20 -19 -27 -19 -12 0 -17 -13 -14 -32 0 -4 -7 -4 -16
-1 -13 5 -15 2 -10 -11 5 -11 3 -15 -5 -10 -8 5 -9 2 -4 -11 6 -16 4 -16 -10
-4 -15 12 -17 12 -12 -1 6 -19 -18 -43 -34 -34 -7 4 -10 4 -6 -1 4 -4 1 -20
-8 -36 -10 -21 -22 -29 -42 -29 -16 0 -22 -3 -15 -8 18 -11 4 -55 -14 -47 -10
3 -13 1 -10 -9 4 -10 1 -13 -9 -9 -9 3 -14 -1 -14 -12 0 -12 -6 -16 -20 -12
-13 3 -20 1 -18 -6 1 -7 -12 -27 -30 -46 -18 -18 -32 -28 -32 -21 0 6 -4 9
-10 5 -5 -3 -6 -13 -3 -22 4 -11 3 -14 -5 -9 -7 4 -12 1 -12 -7 0 -8 -15 -20
-32 -28 -18 -7 -36 -17 -39 -21 -3 -5 -19 -10 -36 -11 -20 -1 -29 -6 -26 -15
3 -6 0 -12 -6 -12 -6 0 -11 6 -11 13 -1 8 -4 7 -13 -3 -13 -16 -44 -19 -66 -6
-9 6 -12 5 -8 -1 4 -6 0 -13 -8 -17 -8 -3 -15 -1 -15 4 0 5 -7 7 -16 3 -11 -4
-23 1 -32 13 -13 16 -14 17 -9 1 6 -15 2 -16 -26 -11 -18 4 -42 6 -54 5 -13 0
-23 4 -23 10 0 5 -4 8 -8 5 -10 -6 -94 14 -106 25 -6 5 -18 9 -28 9 -10 0 -19
8 -19 18 -1 16 -2 16 -6 0 -4 -16 -6 -16 -29 -2 -13 9 -23 22 -22 28 2 6 -4
19 -12 27 -13 15 -16 15 -27 0 -11 -15 -12 -14 -13 2 0 9 -5 17 -11 17 -5 0
-7 5 -3 12 4 6 3 8 -3 5 -5 -3 -17 3 -26 14 -9 10 -15 19 -12 19 2 0 -8 13
-23 29 -47 51 -53 61 -47 71 3 5 -6 12 -20 16 -14 3 -25 11 -25 16 0 5 -10 24
-22 41 -13 18 -23 35 -23 38 0 3 -8 14 -18 24 -10 9 -16 23 -13 31 3 7 -7 18
-24 26 -16 7 -26 16 -24 20 10 16 -7 30 -21 18 -10 -9 -16 -6 -25 9 -6 12 -15
21 -19 21 -5 0 -40 30 -78 68 -62 61 -71 74 -91 142 -22 73 -46 229 -56 357
-3 35 -7 67 -11 73 -3 6 1 13 10 16 14 6 14 8 -1 19 -9 6 -14 16 -11 22 3 5
-1 22 -9 38 -11 21 -11 31 -3 41 9 11 9 14 0 14 -9 0 -9 5 -1 20 7 12 7 20 1
20 -9 0 -7 37 4 67 2 7 -2 10 -11 6 -10 -4 -12 0 -7 13 4 12 3 15 -5 10 -7 -4
-12 -5 -12 -2 0 2 -3 13 -6 23 -4 13 -3 14 3 5 7 -9 9 -2 9 22 -1 19 -6 39
-10 43 -5 4 -6 2 -2 -4 4 -7 2 -13 -4 -13 -12 0 -10 59 4 67 5 4 6 0 1 -8 -5
-8 -4 -11 0 -6 11 10 14 48 4 41 -15 -9 -36 50 -28 79 5 18 4 27 -4 27 -8 0
-8 3 -2 8 12 9 16 44 4 36 -5 -3 -9 0 -9 5 0 6 5 11 11 11 6 0 3 7 -6 16 -10
11 -13 19 -6 23 6 4 7 20 2 41 -4 19 -6 47 -4 61 3 23 -1 28 -29 33 -33 6 -69
42 -98 96 -8 15 -14 65 -16 127 -1 56 -6 107 -10 115 -5 7 -9 19 -10 26 -1 7
-9 36 -18 65 -8 28 -20 77 -26 107 -11 58 -8 408 3 427 14 22 47 22 59 0 6
-12 14 -24 18 -27 5 -3 24 -36 44 -75 24 -48 35 -63 36 -47 0 15 4 21 12 16 7
-5 8 -3 3 6 -5 8 -2 17 7 24 17 13 30 56 17 56 -5 0 -9 -9 -9 -20 0 -11 -4
-20 -9 -20 -6 0 -6 12 -1 30 6 20 5 30 -2 30 -6 0 -5 6 3 16 10 13 10 17 -1
24 -8 5 -10 15 -6 26 6 16 5 16 -15 -2 -16 -14 -21 -15 -17 -4 2 8 19 23 38
32 l34 18 -31 -3 c-17 -1 -29 -5 -27 -8 2 -4 -3 -9 -11 -13 -9 -3 -15 0 -15 9
0 8 5 15 10 15 6 0 10 5 10 10 0 6 -9 10 -20 10 -11 0 -20 6 -20 14 0 26 12
46 28 46 13 0 13 3 -2 19 -9 10 -18 28 -19 40 -1 11 -5 21 -10 21 -4 0 -6 4
-2 9 3 5 1 12 -5 16 -5 3 -10 16 -10 27 0 21 6 23 10 3 2 -5 14 -16 29 -23 14
-7 18 -10 9 -7 -21 5 -24 -15 -6 -33 17 -17 28 -15 21 5 -4 10 -2 14 4 10 12
-8 36 17 26 26 -3 4 -2 7 4 7 6 0 14 7 17 16 5 13 4 14 -7 6 -10 -8 -20 -8
-38 2 -13 7 -30 11 -37 8 -7 -2 -20 4 -28 14 -9 11 -13 13 -9 7 3 -7 2 -13 -4
-13 -13 0 -30 32 -24 47 2 7 -1 21 -7 32 -9 17 -8 20 6 14 14 -5 15 -3 5 15
-13 24 -5 77 17 110 12 18 12 22 1 23 -10 0 -11 2 -1 6 6 2 12 9 12 14 0 6 -4
8 -9 5 -4 -3 -6 6 -3 19 2 14 7 23 11 21 4 -3 7 4 7 15 0 10 -4 19 -8 19 -4 0
-12 10 -19 21 -7 13 -7 19 -1 15 6 -3 14 -1 17 4 10 16 -4 62 -15 55 -6 -3 -7
1 -4 9 3 9 10 13 15 10 5 -3 9 0 9 5 0 6 -6 11 -13 11 -8 0 -14 8 -14 18 0 20
43 156 62 192 18 36 51 64 60 51 3 -6 17 -11 31 -11 18 0 24 5 24 23 -1 21 -1
21 -15 3 -7 -10 -19 -16 -25 -14 -7 2 0 15 16 31 21 21 29 24 36 15 6 -10 8
-10 8 1 0 8 7 11 20 8 11 -3 18 -1 14 4 -3 5 -3 9 0 9 2 0 13 3 23 6 15 5 15
4 3 -5 -23 -17 9 -14 40 3 31 17 37 18 45 7z m110 -11 c3 -5 2 -10 -4 -10 -5
0 -13 5 -16 10 -3 6 -2 10 4 10 5 0 13 -4 16 -10z m4 -76 c10 -9 -45 -3 -59 6
-11 7 -5 8 20 4 19 -4 37 -8 39 -10z m-245 -108 c-5 -12 -44 -19 -44 -9 0 3
33 18 47 22 1 1 0 -5 -3 -13z m289 -97 c-41 -15 -85 -21 -79 -11 3 6 1 12 -4
14 -6 2 15 3 46 4 30 0 48 -3 37 -7z m-968 -117 c-3 -3 -11 0 -18 7 -9 10 -8
11 6 5 10 -3 15 -9 12 -12z m1120 8 c-11 -5 -29 -9 -40 -9 l-20 0 20 9 c11 5
29 9 40 9 l20 0 -20 -9z m-192 -17 c-7 -2 -21 -2 -30 0 -10 3 -4 5 12 5 17 0
24 -2 18 -5z m-1423 -15 c0 -4 -7 -8 -15 -8 -8 0 -15 4 -15 8 0 5 7 9 15 9 8
0 15 -4 15 -9z m1587 -21 c0 -8 -6 -14 -13 -14 -7 0 -10 6 -7 14 3 7 8 13 12
13 4 0 8 -6 8 -13z m-447 -1 c0 -3 -4 -8 -10 -11 -5 -3 -10 -1 -10 4 0 6 5 11
10 11 6 0 10 -2 10 -4z m538 -13 c-10 -2 -26 -2 -35 0 -10 3 -2 5 17 5 19 0
27 -2 18 -5z m-470 -87 c-7 -8 -15 -12 -17 -11 -5 6 10 25 20 25 5 0 4 -6 -3
-14z m739 8 c-3 -3 -12 -4 -19 -1 -8 3 -5 6 6 6 11 1 17 -2 13 -5z m-77 -18
c-25 -6 -51 -15 -57 -19 -8 -5 -13 -4 -13 3 0 14 36 27 79 27 35 0 35 0 -9
-11z m-1895 -6 c3 -6 -1 -7 -9 -4 -18 7 -21 14 -7 14 6 0 13 -4 16 -10z m982
-6 c-3 -3 -12 -4 -19 -1 -8 3 -5 6 6 6 11 1 17 -2 13 -5z m826 -61 c-7 -2 -19
-2 -25 0 -7 3 -2 5 12 5 14 0 19 -2 13 -5z m92 -17 c12 -12 10 -15 -18 -20
-18 -4 -41 -7 -51 -7 -11 0 -27 -4 -38 -10 -10 -5 -18 -7 -18 -5 0 13 80 45
96 39 12 -4 15 -3 10 5 -10 16 2 15 19 -2z m-661 -11 c-10 -8 -27 -15 -36 -15
-10 0 -18 -4 -18 -10 0 -5 -7 -7 -15 -3 -21 7 -11 15 33 29 52 16 59 16 36 -1z
m176 -12 c-57 -18 -70 -21 -70 -13 0 9 29 17 65 18 13 0 15 -1 5 -5z m-1080
-21 c0 -5 -7 -9 -15 -9 -8 0 -12 4 -9 9 3 4 9 8 15 8 5 0 9 -4 9 -8z m1004 -8
c4 -10 1 -14 -6 -12 -15 5 -23 28 -10 28 5 0 13 -7 16 -16z m460 -16 c-35 -39
-56 -57 -67 -58 -4 0 1 10 13 22 11 12 20 25 20 30 0 4 6 8 14 8 7 0 19 7 26
15 7 8 15 15 18 15 3 0 -7 -14 -24 -32z m-39 12 c-3 -5 -11 -10 -16 -10 -6 0
-7 5 -4 10 3 6 11 10 16 10 6 0 7 -4 4 -10z m-450 -10 c3 -5 1 -10 -4 -10 -6
0 -11 5 -11 10 0 6 2 10 4 10 3 0 8 -4 11 -10z m-115 -15 c-14 -8 -29 -14 -35
-14 -5 0 1 6 15 14 14 8 30 14 35 14 6 0 -1 -6 -15 -14z m139 -29 c9 -11 9
-16 -1 -22 -7 -4 -10 -4 -6 1 4 4 3 14 -3 22 -6 7 -9 13 -6 13 2 0 10 -6 16
-14z m478 8 c-3 -3 -12 -4 -19 -1 -8 3 -5 6 6 6 11 1 17 -2 13 -5z m123 -14
c6 -11 8 -20 5 -20 -16 0 -20 3 -17 13 2 5 -3 14 -10 18 -9 6 -10 9 -1 9 7 0
17 -9 23 -20z m-67 -10 c3 -11 1 -18 -4 -14 -5 3 -9 12 -9 20 0 20 7 17 13 -6z
m97 -5 c0 -9 10 -15 26 -15 14 0 23 -4 20 -8 -2 -4 11 -6 30 -4 21 3 34 0 34
-7 0 -6 7 -11 15 -11 8 0 15 -4 15 -10 0 -5 -2 -10 -4 -10 -2 0 -13 -3 -23 -6
-15 -5 -16 -4 -3 6 12 9 8 10 -20 6 -19 -4 -36 -11 -38 -16 -2 -6 -8 -10 -13
-10 -6 0 -7 5 -4 10 3 6 -1 13 -9 16 -9 3 -13 10 -10 15 6 10 -4 12 -58 9 -21
-1 -38 3 -38 9 0 15 18 23 25 11 3 -5 15 -10 25 -10 13 0 18 6 15 20 -2 11 0
20 6 20 5 0 9 -7 9 -15z m-107 -32 c-7 -2 -21 -2 -30 0 -10 3 -4 5 12 5 17 0
24 -2 18 -5z m-563 -7 c0 -11 -19 -15 -25 -6 -3 5 1 10 9 10 9 0 16 -2 16 -4z
m-35 -15 c3 -5 0 -13 -6 -17 -8 -5 -9 -3 -4 6 6 9 1 10 -16 5 -19 -5 -21 -4
-9 4 19 13 27 14 35 2z m719 -6 c14 -11 16 -15 5 -15 -10 -1 -9 -3 4 -11 9 -5
17 -16 17 -24 0 -7 6 -16 13 -18 9 -4 9 -6 -1 -6 -8 -1 -16 8 -19 19 -3 11
-10 17 -15 14 -5 -3 -7 -12 -4 -19 8 -22 -23 -26 -34 -5 -9 17 -7 20 8 20 29
0 23 40 -8 46 -43 10 -46 12 -15 13 17 0 39 -6 49 -14z m397 -69 c42 -25 85
-47 95 -49 10 -1 25 -7 33 -11 11 -7 13 -5 9 5 -4 11 9 8 47 -11 31 -15 48
-28 41 -32 -8 -6 -7 -8 2 -8 6 0 12 -8 12 -17 0 -14 -2 -15 -9 -4 -7 10 -13
11 -31 1 -21 -11 -21 -12 -3 -33 25 -30 35 -37 48 -30 5 4 7 3 3 -2 -8 -8 53
-55 71 -55 6 0 11 -5 11 -11 0 -7 -10 -5 -25 5 -14 9 -30 14 -35 11 -6 -3 -10
-1 -10 5 0 6 -6 8 -12 4 -7 -4 -10 -4 -6 1 10 11 -20 38 -33 29 -7 -4 -9 -3
-6 3 4 6 -2 22 -13 35 -11 14 -16 29 -12 33 4 5 2 5 -5 1 -16 -9 -65 15 -59
29 4 11 -53 35 -84 35 -7 0 -21 10 -31 21 -10 12 -25 19 -33 16 -8 -3 -20 1
-26 9 -7 8 -9 14 -5 14 4 0 2 7 -5 15 -7 8 -10 15 -6 15 4 0 -1 12 -10 28 -9
15 -10 20 -2 11 7 -9 48 -37 89 -63z m-425 51 c4 -4 0 -7 -10 -7 -9 0 -28 -7
-42 -16 -22 -15 -24 -15 -18 -1 3 9 11 15 17 14 7 -1 11 4 10 10 -3 13 31 13
43 0z m111 -24 c0 -9 -4 -10 -12 -3 -7 5 -15 7 -18 3 -4 -3 -7 -1 -7 5 0 6 8
10 18 9 10 0 19 -7 19 -14z m-1717 -23 c0 -5 -5 -10 -11 -10 -5 0 -7 5 -4 10
3 6 8 10 11 10 2 0 4 -4 4 -10z m-215 -9 c3 -5 1 -12 -5 -16 -5 -3 -10 1 -10
9 0 18 6 21 15 7z m1153 -26 c-3 -3 -9 2 -12 12 -6 14 -5 15 5 6 7 -7 10 -15
7 -18z m-91 9 c-3 -3 -12 -4 -19 -1 -8 3 -5 6 6 6 11 1 17 -2 13 -5z m881 -3
c6 -1 12 -6 12 -11 0 -6 -10 -8 -24 -4 -13 3 -33 1 -43 -4 -15 -8 -22 -7 -31
8 -12 19 -11 20 86 11z m-728 -11 c0 -5 -6 -10 -14 -10 -8 0 -18 5 -21 10 -3
6 3 10 14 10 12 0 21 -4 21 -10z m121 -21 c-27 -22 -62 -22 -68 1 -4 13 -3 13
6 0 10 -13 11 -13 11 0 0 10 3 11 8 3 5 -8 13 -8 32 2 35 20 39 18 11 -6z
m224 1 c3 -5 1 -10 -4 -10 -6 0 -11 5 -11 10 0 6 2 10 4 10 3 0 8 -4 11 -10z
m-1515 -20 c0 -5 -5 -10 -11 -10 -5 0 -7 5 -4 10 3 6 8 10 11 10 2 0 4 -4 4
-10z m1273 -17 c-7 -2 -21 -2 -30 0 -10 3 -4 5 12 5 17 0 24 -2 18 -5z m1267
-33 c12 -8 11 -10 -7 -10 -13 0 -23 5 -23 10 0 13 11 13 30 0z m-47 -7 c-7 -2
-21 -2 -30 0 -10 3 -4 5 12 5 17 0 24 -2 18 -5z m-1216 -9 c-3 -3 -12 -4 -19
-1 -8 3 -5 6 6 6 11 1 17 -2 13 -5z m430 -20 c-3 -3 -12 -4 -19 -1 -8 3 -5 6
6 6 11 1 17 -2 13 -5z m48 -14 c-3 -5 -12 -7 -20 -3 -21 7 -19 13 6 13 11 0
18 -4 14 -10z m222 4 c-3 -3 -12 -4 -19 -1 -8 3 -5 6 6 6 11 1 17 -2 13 -5z
m-547 -9 c0 -2 -10 -9 -22 -15 -22 -11 -22 -10 -4 4 21 17 26 19 26 11z m626
-10 c-11 -8 -27 -14 -35 -14 -12 1 -12 2 2 6 9 2 15 9 12 14 -4 5 4 9 17 9 22
-1 22 -1 4 -15z m94 6 c0 -11 -58 -12 -65 -1 -3 5 9 9 30 8 19 -1 35 -4 35 -7z
m-152 -16 c12 -10 -63 -9 -85 1 -26 12 -23 13 27 7 30 -3 56 -7 58 -8z m265
-29 c-4 -5 1 -7 10 -3 11 4 17 1 17 -8 0 -11 -10 -10 -47 7 -66 28 -72 36 -19
24 25 -6 42 -15 39 -20z m-68 -13 l20 -16 -20 8 c-11 4 -38 11 -60 15 l-40 7
40 1 c23 1 49 -5 60 -15z m135 -3 c0 -5 -8 -10 -17 -10 -15 0 -16 2 -3 10 19
12 20 12 20 0z m-795 -30 c-3 -5 -14 -10 -23 -9 -14 0 -13 2 3 9 27 11 27 11
20 0z m1030 -8 c-3 -3 -11 0 -18 7 -9 10 -8 11 6 5 10 -3 15 -9 12 -12z
m-1015 -22 c0 -5 -8 -10 -17 -10 -15 0 -16 2 -3 10 19 12 20 12 20 0z m951 -7
c13 -16 12 -17 -3 -4 -17 13 -22 21 -14 21 2 0 10 -8 17 -17z m1596 -85 c-3
-8 -6 -5 -6 6 -1 11 2 17 5 13 3 -3 4 -12 1 -19z m-57 -8 c6 -11 8 -20 6 -20
-3 0 -10 9 -16 20 -6 11 -8 20 -6 20 3 0 10 -9 16 -20z m-1355 -8 c-3 -3 -11
0 -18 7 -9 10 -8 11 6 5 10 -3 15 -9 12 -12z m1425 -28 c0 -16 -5 -24 -12 -21
-20 6 -18 47 3 47 5 0 9 -12 9 -26z m-1745 -14 c3 -6 -1 -7 -9 -4 -18 7 -21
14 -7 14 6 0 13 -4 16 -10z m-522 -17 c-7 -2 -21 -2 -30 0 -10 3 -4 5 12 5 17
0 24 -2 18 -5z m518 -26 c-10 -9 -11 -8 -5 6 3 10 9 15 12 12 3 -3 0 -11 -7
-18z m1779 -17 c0 -13 -1 -13 -10 0 -5 8 -10 22 -10 30 0 13 1 13 10 0 5 -8
10 -22 10 -30z m-1753 8 c-3 -8 -6 -5 -6 6 -1 11 2 17 5 13 3 -3 4 -12 1 -19z
m69 -15 c-6 -6 -46 20 -46 30 0 4 11 0 25 -9 14 -9 24 -19 21 -21z m-741 -3
c-3 -5 -12 -10 -18 -10 -7 0 -6 4 3 10 19 12 23 12 15 0z m803 -33 c6 0 12 -4
12 -9 0 -6 -14 -6 -32 -2 -18 4 -39 7 -45 7 -7 0 -13 4 -13 9 0 6 14 6 33 2
17 -4 38 -7 45 -7z m-358 -17 c-19 -11 -39 -19 -45 -19 -5 0 6 8 25 19 19 11
40 19 45 19 6 0 -6 -8 -25 -19z m270 -10 c0 -5 -7 -10 -16 -10 -8 0 -12 5 -9
10 3 6 10 10 16 10 5 0 9 -4 9 -10z m143 3 c-7 -2 -19 -2 -25 0 -7 3 -2 5 12
5 14 0 19 -2 13 -5z m-58 -13 c3 -6 -1 -7 -9 -4 -18 7 -21 14 -7 14 6 0 13 -4
16 -10z m-425 -10 c-8 -5 -19 -10 -25 -10 -5 0 -3 5 5 10 8 5 20 10 25 10 6 0
3 -5 -5 -10z m384 -21 c39 -23 44 -29 22 -29 -15 0 -78 49 -64 50 4 0 23 -9
42 -21z m123 5 c-3 -3 -12 -4 -19 -1 -8 3 -5 6 6 6 11 1 17 -2 13 -5z m-47
-40 c0 -2 -7 -4 -15 -4 -8 0 -15 4 -15 10 0 5 7 7 15 4 8 -4 15 -8 15 -10z
m-983 -316 c-3 -8 -6 -5 -6 6 -1 11 2 17 5 13 3 -3 4 -12 1 -19z m2144 -25
c13 -17 13 -17 -6 -3 -11 8 -22 16 -24 17 -2 2 0 3 6 3 6 0 17 -8 24 -17z m-7
-29 c5 -14 4 -15 -9 -4 -17 14 -19 20 -6 20 5 0 12 -7 15 -16z m-1664 -343 c0
-4 18 -16 40 -26 22 -10 37 -21 35 -25 -3 -4 11 -11 30 -14 19 -4 35 -12 35
-19 0 -7 9 -13 19 -13 11 0 18 4 15 7 -2 4 0 10 6 14 5 3 15 -3 22 -14 11 -18
13 -18 24 -3 11 16 12 15 11 -2 -1 -13 6 -22 23 -27 14 -4 19 -7 13 -8 -24 -2
-13 -16 12 -16 20 0 24 4 19 20 -4 11 -11 22 -15 23 -5 2 -9 8 -9 13 0 6 8 6
19 -1 23 -12 31 -13 30 -2 -4 26 2 34 24 28 51 -15 68 -13 87 12 18 22 20 22
20 6 0 -14 8 -20 26 -22 14 -1 23 2 19 8 -3 6 1 7 9 4 9 -3 13 -10 10 -15 -3
-5 -1 -9 5 -9 13 0 41 -29 41 -43 0 -9 -2 -9 -8 -1 -4 7 -15 8 -27 3 -11 -4
-14 -8 -7 -8 7 -1 10 -5 7 -11 -6 -9 8 -14 28 -11 4 0 7 -6 7 -14 0 -8 8 -15
18 -15 10 0 26 -6 36 -13 12 -9 46 -12 108 -10 52 1 98 -2 107 -8 13 -9 13
-10 -4 -5 -18 5 -18 5 -4 -6 9 -7 14 -18 12 -25 -2 -7 1 -22 8 -35 12 -22 11
-22 -8 -6 -18 17 -21 16 -56 -8 -23 -15 -35 -30 -30 -37 5 -9 4 -9 -8 0 -11 9
-31 8 -89 -8 -80 -22 -177 -22 -340 0 -92 12 -127 24 -208 70 -35 20 -73 41
-86 48 -12 7 -29 25 -37 40 -8 15 -17 30 -21 33 -4 3 -10 21 -13 39 -3 19 -9
41 -14 50 -14 28 -21 80 -14 112 l6 31 33 -37 c19 -20 34 -40 34 -44z m1703
52 c-7 -2 -21 -2 -30 0 -10 3 -4 5 12 5 17 0 24 -2 18 -5z m-1303 -104 c0 -6
-4 -7 -10 -4 -5 3 -10 11 -10 16 0 6 5 7 10 4 6 -3 10 -11 10 -16z m-875 -29
c3 -6 -1 -7 -9 -4 -18 7 -21 14 -7 14 6 0 13 -4 16 -10z m1981 -47 c-10 -10
-19 5 -10 18 6 11 8 11 12 0 2 -7 1 -15 -2 -18z m-776 -237 c0 -11 -19 -15
-25 -6 -3 5 1 10 9 10 9 0 16 -2 16 -4z m427 -2 c-3 -3 -12 -4 -19 -1 -8 3 -5
6 6 6 11 1 17 -2 13 -5z m333 -14 c0 -5 -6 -10 -12 -13 -7 -2 -9 -8 -5 -13 5
-5 14 -3 20 6 22 28 32 18 32 -31 0 -50 -12 -69 -45 -69 -8 0 -4 6 10 13 29
15 40 47 15 47 -20 0 -52 31 -49 48 1 6 2 16 3 22 1 11 31 2 31 -10z m-64 -47
c17 -18 24 -35 21 -50 -2 -13 -1 -23 3 -23 18 0 20 -36 3 -50 -10 -8 -30 -33
-46 -56 -15 -22 -44 -56 -65 -75 l-37 -34 37 40 c41 45 68 103 68 146 0 16 5
38 12 48 9 15 8 23 -8 43 -11 14 -25 23 -33 20 -8 -3 -11 0 -7 7 11 17 25 13
52 -16z m982 -248 c-3 -3 -9 2 -12 12 -6 14 -5 15 5 6 7 -7 10 -15 7 -18z
m-1741 -71 c-3 -3 -12 -4 -19 -1 -8 3 -5 6 6 6 11 1 17 -2 13 -5z m1716 -26
c2 -7 1 -22 -3 -33 -6 -17 -8 -15 -12 13 -4 31 5 45 15 20z m170 -45 c-3 -7
-6 -13 -8 -13 -2 0 -5 6 -8 13 -3 8 1 14 8 14 7 0 11 -6 8 -14z m-190 -68 c4
-8 2 -17 -3 -20 -6 -4 -10 3 -10 14 0 25 6 27 13 6z m437 -625 c0 -5 -2 -10
-4 -10 -3 0 -8 5 -11 10 -3 6 -1 10 4 10 6 0 11 -4 11 -10z m-23 -156 c-3 -3
-12 -4 -19 -1 -8 3 -5 6 6 6 11 1 17 -2 13 -5z m-3142 -14 c3 -5 1 -10 -4 -10
-6 0 -11 5 -11 10 0 6 2 10 4 10 3 0 8 -4 11 -10z m-981 -231 c-9 -16 -24 -10
-17 8 5 12 3 14 -7 8 -9 -5 -11 -4 -6 4 6 9 11 9 22 0 7 -6 11 -15 8 -20z
m4048 -1 c-7 -7 -12 -8 -12 -2 0 14 12 26 19 19 2 -3 -1 -11 -7 -17z"/>
<path d="M1297 4460 c-3 -11 -3 -20 -1 -20 2 0 8 9 14 20 6 11 7 20 2 20 -6 0
-12 -9 -15 -20z"/>
<path d="M1240 4430 c-9 -6 -10 -10 -3 -10 6 0 15 5 18 10 8 12 4 12 -15 0z"/>
<path d="M1218 4169 c-9 -6 -8 -9 4 -14 18 -7 38 1 38 14 0 10 -26 10 -42 0z"/>
<path d="M1275 4170 c-3 -6 1 -7 9 -4 18 7 21 14 7 14 -6 0 -13 -4 -16 -10z"/>
<path d="M1370 3909 c0 -5 9 -9 20 -9 11 0 20 2 20 4 0 2 -9 6 -20 9 -11 3
-20 1 -20 -4z"/>
<path d="M1810 3286 c7 -7 13 -7 20 0 6 6 3 10 -10 10 -13 0 -16 -4 -10 -10z"/>
<path d="M1087 3233 c-12 -12 -7 -33 8 -33 7 0 18 -8 24 -17 8 -15 12 -16 22
-5 11 10 10 12 -5 12 -10 0 -14 5 -11 11 4 6 13 8 20 5 7 -2 16 1 19 9 4 11
-1 12 -25 3 -23 -8 -34 -7 -42 2 -9 10 -7 11 11 5 13 -4 22 -2 22 4 0 12 -33
15 -43 4z"/>
<path d="M1800 3230 c0 -5 5 -10 11 -10 5 0 7 5 4 10 -3 6 -8 10 -11 10 -2 0
-4 -4 -4 -10z"/>
<path d="M1225 3183 c12 -26 19 -27 60 -8 26 12 27 13 8 14 -12 1 -25 -3 -28
-9 -9 -15 -25 -12 -25 4 0 8 8 17 18 19 9 2 3 4 -13 3 -28 -1 -30 -3 -20 -23z"/>
<path d="M1890 3201 c0 -5 10 -8 23 -7 12 1 25 -3 29 -9 5 -6 8 -4 8 6 0 11
-9 16 -30 17 -16 0 -30 -3 -30 -7z"/>
<path d="M1848 3193 c7 -3 16 -2 19 1 4 3 -2 6 -13 5 -11 0 -14 -3 -6 -6z"/>
<path d="M2045 3160 c-11 -4 -26 -5 -32 -3 -7 3 -13 -2 -13 -10 0 -18 44 -17
62 1 16 16 8 21 -17 12z"/>
<path d="M1153 3125 c-9 -25 4 -29 17 -6 7 15 7 21 0 21 -6 0 -13 -7 -17 -15z"/>
<path d="M1785 3130 c-3 -5 -2 -10 4 -10 5 0 13 5 16 10 3 6 2 10 -4 10 -5 0
-13 -4 -16 -10z"/>
<path d="M1170 3101 c-14 -28 -12 -44 5 -37 15 5 18 -1 18 -37 0 -17 11 -14
13 4 1 5 2 13 3 19 1 12 61 43 69 36 3 -3 0 -6 -7 -6 -7 0 -9 -5 -5 -12 4 -7
3 -8 -4 -4 -7 4 -12 3 -12 -2 0 -18 13 -21 34 -7 26 19 37 19 30 0 -4 -8 -9
-13 -13 -11 -3 2 -14 -2 -24 -9 -12 -8 -14 -15 -8 -20 6 -3 11 -1 11 6 0 6 8
9 20 6 12 -3 18 -1 14 5 -4 6 1 8 15 3 13 -4 21 -2 21 5 0 6 -5 8 -12 4 -8 -5
-9 -2 -5 9 3 10 2 17 -3 17 -5 0 -7 6 -4 14 4 11 -6 14 -45 14 -41 1 -53 -3
-62 -19 -8 -16 -13 -18 -25 -8 -8 6 -14 17 -14 23 0 7 3 6 9 -2 6 -10 12 -9
30 5 l23 19 -31 2 c-21 2 -33 -3 -41 -17z"/>
<path d="M1570 3050 c-9 -6 -10 -10 -3 -10 6 0 15 5 18 10 8 12 4 12 -15 0z"/>
<path d="M2245 3044 c-11 -8 -19 -18 -17 -22 2 -3 -5 -9 -15 -13 -16 -5 -15
-7 6 -14 24 -7 24 -8 6 -21 -10 -8 -16 -15 -12 -15 4 -1 10 -2 15 -3 4 -1 13
-5 19 -9 7 -5 21 -3 30 3 14 9 14 10 2 7 -17 -5 -47 8 -38 17 2 3 20 2 39 -3
19 -4 56 -7 83 -6 26 1 47 -3 47 -8 0 -4 5 -5 10 -2 6 3 10 1 10 -4 0 -6 9
-11 19 -11 11 0 22 -6 24 -12 4 -10 6 -9 6 1 1 9 5 10 14 4 6 -6 25 -13 41
-17 53 -13 12 20 -59 47 -50 19 -72 23 -100 17 -20 -4 -38 -4 -41 1 -3 5 -10
7 -15 4 -5 -4 -9 -2 -9 4 0 7 18 9 48 5 l47 -6 -25 21 c-16 13 -38 20 -61 19
-40 -1 -62 8 -54 23 8 12 3 11 -20 -7z m21 -33 c-4 -5 3 -7 14 -4 11 3 20 0
20 -6 0 -6 -13 -11 -29 -11 -30 0 -46 12 -34 24 10 9 35 7 29 -3z m84 -1 c0
-5 -7 -7 -15 -4 -8 4 -15 8 -15 10 0 2 7 4 15 4 8 0 15 -4 15 -10z"/>
<path d="M2085 3040 c-3 -5 1 -10 10 -10 9 0 13 5 10 10 -3 6 -8 10 -10 10 -2
0 -7 -4 -10 -10z"/>
<path d="M1370 3017 c-8 -7 -22 -21 -30 -31 -14 -18 -14 -19 6 -8 23 12 49 40
43 46 -2 3 -11 -1 -19 -7z"/>
<path d="M1430 3016 c0 -17 16 -30 23 -19 3 5 -1 14 -9 21 -12 10 -14 10 -14
-2z"/>
<path d="M2120 3014 c0 -8 5 -12 10 -9 6 4 8 11 5 16 -9 14 -15 11 -15 -7z"/>
<path d="M2525 2990 c-3 -5 -1 -10 4 -10 6 0 11 5 11 10 0 6 -2 10 -4 10 -3 0
-8 -4 -11 -10z"/>
<path d="M2040 2970 c-12 -8 -10 -10 8 -10 13 0 20 4 17 10 -7 12 -6 12 -25 0z"/>
<path d="M1410 2959 c0 -14 20 -20 36 -11 14 8 12 10 -10 14 -14 3 -26 2 -26
-3z"/>
<path d="M1547 2959 c7 -7 15 -10 18 -7 3 3 -2 9 -12 12 -14 6 -15 5 -6 -5z"/>
<path d="M2309 2949 c-11 -7 -10 -9 6 -10 l20 0 -20 -9 c-16 -7 -13 -8 13 -6
17 2 35 6 40 11 4 5 2 5 -5 2 -6 -4 -18 -1 -26 7 -9 9 -19 11 -28 5z"/>
<path d="M1325 2939 c-4 -6 -5 -12 -2 -15 2 -3 7 2 10 11 7 17 1 20 -8 4z"/>
<path d="M1369 2929 l-24 -20 25 13 c14 7 29 11 33 10 5 -1 6 2 2 8 -8 13 -9
13 -36 -11z"/>
<path d="M1448 2926 c-15 -8 -29 -11 -33 -8 -3 4 -3 -1 1 -11 3 -9 2 -17 -4
-17 -6 0 -13 6 -15 13 -4 9 -6 9 -6 0 -1 -16 13 -23 53 -27 21 -1 32 2 29 8
-4 5 0 7 9 4 8 -4 21 2 29 13 7 10 19 19 26 19 7 0 13 4 13 8 0 14 -73 13
-102 -2z m12 -20 c0 -2 -7 -6 -15 -10 -8 -3 -15 -1 -15 4 0 6 7 10 15 10 8 0
15 -2 15 -4z"/>
<path d="M1560 2932 c0 -4 9 -8 19 -8 11 0 17 4 15 8 -3 4 -12 8 -20 8 -8 0
-14 -4 -14 -8z"/>
<path d="M1180 2915 c0 -8 4 -15 10 -15 5 0 7 7 4 15 -4 8 -8 15 -10 15 -2 0
-4 -7 -4 -15z"/>
<path d="M2168 2913 c7 -3 16 -2 19 1 4 3 -2 6 -13 5 -11 0 -14 -3 -6 -6z"/>
<path d="M1575 2901 c-3 -6 -11 -9 -16 -6 -5 4 -9 1 -9 -4 0 -13 10 -14 30 -1
8 5 12 12 8 15 -3 4 -9 1 -13 -4z"/>
<path d="M2235 2890 c-25 -11 1 -11 35 0 20 6 21 8 5 8 -11 0 -29 -3 -40 -8z"/>
<path d="M2370 2889 c0 -5 5 -7 10 -4 6 3 10 8 10 11 0 2 -4 4 -10 4 -5 0 -10
-5 -10 -11z"/>
<path d="M2565 2890 c28 -12 45 -12 45 0 0 6 -15 10 -32 9 -28 0 -30 -2 -13
-9z"/>
<path d="M1171 2883 c-1 -7 -6 -12 -12 -10 -6 1 -13 -4 -14 -11 -2 -7 -1 -8 2
-2 3 8 9 7 19 -1 19 -15 24 -9 13 16 -4 11 -8 14 -8 8z"/>
<path d="M1041 2854 c0 -11 3 -14 6 -6 3 7 2 16 -1 19 -3 4 -6 -2 -5 -13z"/>
<path d="M1226 2861 c-3 -5 1 -11 9 -14 9 -4 12 -1 8 9 -6 16 -10 17 -17 5z"/>
<path d="M1410 2860 c0 -6 -5 -8 -12 -4 -7 4 -8 3 -4 -4 4 -7 2 -12 -3 -12 -8
0 -7 -7 1 -20 13 -20 18 -20 22 2 1 7 5 18 9 25 4 6 3 14 -3 18 -5 3 -10 1
-10 -5z"/>
<path d="M1499 2852 c-1 -4 -1 -10 0 -14 0 -4 -5 -5 -12 -3 -6 2 -19 -1 -28
-8 -19 -14 -38 -63 -20 -53 6 4 11 15 11 24 0 12 3 13 12 4 18 -18 32 -14 17
5 -8 9 -9 14 -4 11 6 -3 22 4 38 16 24 20 25 22 7 23 -11 1 -21 -1 -21 -5z"/>
<path d="M2385 2850 c-3 -5 1 -10 9 -10 9 0 16 5 16 10 0 6 -4 10 -9 10 -6 0
-13 -4 -16 -10z"/>
<path d="M2658 2843 c7 -3 16 -2 19 1 4 3 -2 6 -13 5 -11 0 -14 -3 -6 -6z"/>
<path d="M1200 2825 c-17 -21 -5 -31 15 -12 8 9 15 18 15 21 0 11 -18 6 -30
-9z"/>
<path d="M2248 2823 c7 -3 16 -2 19 1 4 3 -2 6 -13 5 -11 0 -14 -3 -6 -6z"/>
<path d="M1350 2795 c-5 -14 -7 -32 -4 -40 6 -14 8 -13 20 2 19 26 17 38 -3
22 -17 -13 -17 -13 0 7 19 23 22 34 7 34 -6 0 -15 -11 -20 -25z"/>
<path d="M2760 2810 c0 -6 7 -13 15 -16 8 -4 12 -11 8 -17 -4 -6 -1 -7 7 -2
10 6 10 11 -3 20 -9 7 -14 15 -10 18 3 4 1 7 -5 7 -7 0 -12 -5 -12 -10z"/>
<path d="M1310 2789 c0 -5 5 -7 10 -4 6 3 10 8 10 11 0 2 -4 4 -10 4 -5 0 -10
-5 -10 -11z"/>
<path d="M1266 2762 c-3 -6 -3 -18 0 -29 6 -16 5 -16 -9 2 -15 19 -15 19 -10
-8 3 -15 1 -27 -5 -27 -7 0 -8 -10 -2 -30 5 -18 5 -30 -1 -30 -5 0 -9 10 -10
23 -1 19 -2 18 -9 -6 -5 -15 -10 -47 -11 -70 -2 -23 -8 -46 -14 -50 -6 -5 -2
-7 10 -4 11 2 19 9 17 16 -1 8 2 10 10 5 15 -10 48 -13 44 -5 -2 3 0 15 5 26
6 16 8 11 8 -18 1 -24 -3 -36 -9 -32 -6 4 -18 1 -27 -7 -14 -11 -16 -11 -8 1
6 11 2 13 -19 7 -87 -21 -83 -21 -63 1 9 11 17 25 17 32 0 7 5 9 10 6 6 -3 10
3 10 15 0 12 -4 18 -10 15 -5 -3 -10 -1 -10 4 0 6 -16 11 -37 11 -49 0 -38 8
15 11 51 3 59 28 10 30 -32 1 -32 2 -6 8 17 4 25 10 20 17 -9 13 -42 14 -42 1
0 -5 -7 -6 -16 -3 -17 7 -84 -21 -84 -34 0 -5 8 -11 18 -13 13 -4 11 -5 -5 -6
-15 -1 -23 -7 -23 -19 0 -24 73 -99 91 -94 11 3 11 2 1 -6 -16 -11 -10 -68 7
-65 6 2 11 -4 11 -13 0 -9 -5 -13 -12 -9 -7 4 -2 -4 12 -17 14 -13 25 -26 25
-30 0 -3 4 -10 9 -15 6 -5 6 -2 1 6 -6 11 -4 13 8 8 13 -5 16 -1 13 15 -1 12
-8 24 -15 26 -9 3 -9 7 0 18 9 11 9 18 1 26 -7 7 -12 21 -11 33 0 11 3 14 6 8
2 -7 9 -13 15 -13 6 0 8 7 4 15 -3 9 0 15 9 15 8 0 15 -9 15 -20 0 -11 7 -20
15 -20 8 0 15 -5 15 -11 0 -5 -3 -8 -7 -6 -5 3 -8 -9 -9 -26 0 -26 4 -32 22
-33 13 -1 26 7 33 20 8 16 10 -2 7 -79 -2 -55 -1 -84 2 -65 3 22 12 -35 23
-155 l17 -190 -6 160 c-4 88 -7 215 -7 282 0 78 -4 119 -10 115 -5 -3 -2 4 8
15 15 18 16 23 4 30 -17 10 -30 43 -17 43 6 0 10 7 10 15 0 11 -12 15 -42 17
-39 1 -40 2 -9 5 l33 4 -7 67 c-7 71 -18 102 -29 84z m18 -78 c3 -8 2 -12 -4
-9 -6 3 -10 10 -10 16 0 14 7 11 14 -7z"/>
<path d="M1405 2750 c-3 -6 1 -7 9 -4 18 7 21 14 7 14 -6 0 -13 -4 -16 -10z"/>
<path d="M1640 2720 c0 -5 5 -10 10 -10 6 0 10 5 10 10 0 6 -4 10 -10 10 -5 0
-10 -4 -10 -10z"/>
<path d="M1365 2680 c-3 -5 -1 -10 4 -10 6 0 11 5 11 10 0 6 -2 10 -4 10 -3 0
-8 -4 -11 -10z"/>
<path d="M1343 2555 c-9 -24 1 -27 15 -5 8 13 8 20 2 20 -6 0 -13 -7 -17 -15z"/>
<path d="M1396 2483 c-6 -14 -5 -15 5 -6 7 7 10 15 7 18 -3 3 -9 -2 -12 -12z"/>
<path d="M1052 2436 c0 -30 -3 -60 -7 -65 -3 -6 -3 -21 0 -32 6 -17 9 -19 16
-8 7 11 9 10 9 -4 0 -22 26 -51 38 -43 10 6 9 -25 -2 -42 -8 -14 16 -27 36
-19 7 3 3 6 -10 6 -13 1 -20 5 -17 11 4 6 11 8 16 5 5 -4 9 -2 9 4 0 5 -5 13
-10 16 -6 4 -8 11 -5 16 4 5 -1 12 -9 15 -9 3 -13 10 -10 15 3 5 -2 9 -11 9
-13 0 -15 11 -10 69 4 55 1 73 -11 85 -8 9 -17 16 -18 16 -2 0 -3 -24 -4 -54z"/>
<path d="M1245 2381 c-3 -6 -11 -9 -16 -6 -5 3 -6 -1 -3 -10 6 -15 8 -15 22
-1 9 9 13 18 10 21 -3 4 -9 1 -13 -4z"/>
<path d="M1245 2340 c-16 -17 -16 -20 -3 -15 9 4 19 13 22 21 7 19 2 18 -19
-6z"/>
<path d="M1251 2244 c0 -11 3 -14 6 -6 3 7 2 16 -1 19 -3 4 -6 -2 -5 -13z"/>
<path d="M1231 2224 c0 -11 3 -14 6 -6 3 7 2 16 -1 19 -3 4 -6 -2 -5 -13z"/>
<path d="M1303 2105 c0 -33 2 -45 4 -27 2 18 2 45 0 60 -2 15 -4 0 -4 -33z"/>
<path d="M1313 1910 c0 -41 2 -58 4 -37 2 20 2 54 0 75 -2 20 -4 3 -4 -38z"/>
<path d="M1331 1904 c0 -11 3 -14 6 -6 3 7 2 16 -1 19 -3 4 -6 -2 -5 -13z"/>
<path d="M1196 1884 c-7 -19 -8 -49 -1 -42 7 7 17 58 11 58 -2 0 -7 -7 -10
-16z"/>
<path d="M1337 1874 c-3 -4 0 -22 8 -41 8 -19 12 -39 9 -44 -3 -5 0 -9 5 -9 6
0 11 9 11 20 0 11 7 20 15 20 21 0 19 9 -11 36 -28 26 -28 27 -37 18z m28 -34
c3 -5 1 -10 -4 -10 -6 0 -11 5 -11 10 0 6 2 10 4 10 3 0 8 -4 11 -10z"/>
<path d="M1195 1821 c-3 -5 -2 -12 3 -15 5 -3 9 1 9 9 0 17 -3 19 -12 6z"/>
<path d="M1313 1775 c0 -33 2 -45 4 -27 2 18 2 45 0 60 -2 15 -4 0 -4 -33z"/>
<path d="M1588 1763 c7 -3 16 -2 19 1 4 3 -2 6 -13 5 -11 0 -14 -3 -6 -6z"/>
<path d="M1658 1753 c7 -3 16 -2 19 1 4 3 -2 6 -13 5 -11 0 -14 -3 -6 -6z"/>
<path d="M1580 1723 c-14 -3 -33 -12 -42 -20 -9 -8 -23 -12 -30 -8 -7 3 -4 -1
7 -10 11 -9 19 -23 17 -31 -2 -8 2 -14 8 -14 6 0 8 -4 5 -10 -3 -5 -1 -10 5
-10 6 0 8 -4 5 -10 -3 -5 0 -7 8 -4 8 3 19 -2 26 -10 7 -8 20 -12 28 -9 12 5
15 2 10 -10 -6 -16 19 -45 30 -33 3 3 1 6 -5 6 -7 0 -11 3 -10 8 1 4 -2 19 -6
35 -8 28 -31 36 -39 15 -3 -7 -6 -3 -6 10 -1 15 3 21 10 16 6 -3 15 -1 19 6 5
8 12 0 20 -24 7 -22 18 -36 28 -36 15 0 15 2 2 10 -12 8 -13 11 -2 22 11 11
13 10 10 -2 -2 -9 6 -16 20 -18 12 -2 20 -8 16 -13 -3 -5 -10 -7 -15 -4 -5 3
-6 -1 -3 -10 4 -10 10 -12 18 -6 7 6 18 6 26 1 8 -5 21 -5 31 0 11 7 21 5 28
-4 6 -7 24 -12 41 -10 16 2 32 -1 35 -6 3 -5 -8 -7 -25 -5 -18 3 -28 0 -25 -5
4 -6 2 -10 -4 -10 -5 0 -15 8 -20 18 -6 9 -11 12 -11 5 0 -6 -3 -19 -7 -29 -5
-14 -3 -16 12 -10 11 4 17 4 13 1 -3 -4 1 -15 10 -26 15 -18 17 -18 36 -1 18
15 19 15 8 0 -11 -14 -10 -18 5 -28 16 -10 16 -11 -5 -7 -12 3 -20 1 -17 -3 3
-5 -1 -11 -7 -13 -9 -4 -7 -6 3 -6 9 -1 22 -8 29 -16 7 -8 16 -13 20 -10 4 3
23 -9 41 -27 19 -17 26 -29 17 -25 -10 3 -18 2 -18 -3 0 -11 33 -20 70 -19 14
0 58 -3 98 -7 68 -6 90 -18 58 -30 -8 -3 -12 -12 -9 -20 4 -12 12 -10 34 12
16 15 29 24 29 19 0 -18 -52 -75 -68 -75 -15 0 -15 2 -2 10 13 8 12 12 -4 27
-10 10 -16 13 -13 7 10 -18 -31 -24 -48 -7 -8 8 -15 10 -15 5 0 -4 -12 -8 -27
-7 -16 1 -20 0 -10 -2 9 -2 17 -11 17 -20 0 -12 3 -13 15 -3 8 6 23 9 35 5 20
-6 21 -7 3 -21 -16 -12 -16 -13 -2 -14 26 0 149 40 147 48 -1 4 2 22 6 40 6
24 13 32 29 31 12 0 16 -3 10 -6 -7 -2 -13 -12 -13 -22 0 -9 -6 -23 -12 -30
-7 -8 2 -5 21 5 50 28 116 98 141 149 31 65 22 91 -43 120 -57 26 -272 89
-442 129 -174 42 -160 40 -145 21 11 -13 11 -19 -3 -32 -13 -14 -20 -14 -46
-4 -31 13 -56 49 -25 37 8 -3 18 -6 20 -6 3 0 2 -4 -1 -10 -3 -5 -2 -10 4 -10
15 0 23 18 11 25 -6 4 -8 10 -6 14 3 4 -17 7 -45 6 -27 -1 -49 3 -49 8 0 4 -4
5 -10 2 -5 -3 -10 -1 -10 4 0 11 -6 12 -50 4z m274 -108 c-4 -8 -9 -15 -13
-15 -4 0 -8 7 -8 15 0 8 6 15 13 15 8 0 11 -6 8 -15z m36 -9 c0 -2 -7 -6 -15
-10 -8 -3 -15 -1 -15 4 0 6 7 10 15 10 8 0 15 -2 15 -4z m39 -72 c-6 -7 -17
-10 -26 -7 -17 7 -2 20 22 20 11 0 12 -4 4 -13z m32 -7 c-10 -9 -11 -8 -5 6 3
10 9 15 12 12 3 -3 0 -11 -7 -18z m56 7 c-3 -3 -12 -4 -19 -1 -8 3 -5 6 6 6
11 1 17 -2 13 -5z m-37 -48 c0 -2 -8 -10 -17 -17 -16 -13 -17 -12 -4 4 13 16
21 21 21 13z m375 -16 c-3 -5 -14 -10 -23 -10 -15 0 -15 2 -2 10 20 13 33 13
25 0z m-433 -12 c-5 -7 -12 -22 -15 -33 -5 -20 -5 -20 -6 1 0 11 4 25 11 32
16 16 23 15 10 0z m423 -88 c-3 -5 -14 -10 -23 -10 -15 0 -15 2 -2 10 20 13
33 13 25 0z m-145 -54 c0 -3 -4 -8 -10 -11 -5 -3 -10 -1 -10 4 0 6 5 11 10 11
6 0 10 -2 10 -4z"/>
<path d="M1401 1707 c-8 -8 -6 -16 6 -29 9 -10 21 -18 27 -18 6 1 0 10 -14 22
-14 12 -18 19 -8 15 9 -3 21 0 27 7 13 16 -22 19 -38 3z"/>
<path d="M1320 1689 c0 -5 5 -7 10 -4 6 3 10 8 10 11 0 2 -4 4 -10 4 -5 0 -10
-5 -10 -11z"/>
<path d="M1775 1670 c-3 -5 -1 -10 4 -10 6 0 11 5 11 10 0 6 -2 10 -4 10 -3 0
-8 -4 -11 -10z"/>
<path d="M2360 1566 c36 -14 72 -34 82 -46 22 -27 25 -25 26 9 1 31 -4 34 -83
46 -16 3 -43 7 -60 10 -16 3 -1 -6 35 -19z"/>
<path d="M1740 1543 c0 -17 14 -23 29 -14 9 6 10 11 2 15 -6 4 -11 1 -11 -6 0
-9 -3 -9 -10 2 -6 9 -10 10 -10 3z"/>
<path d="M2570 1530 c-8 -5 -12 -11 -9 -14 2 -3 11 -1 19 4 8 5 12 11 9 14 -2
3 -11 1 -19 -4z"/>
<path d="M2868 1513 c12 -2 32 -2 45 0 12 2 2 4 -23 4 -25 0 -35 -2 -22 -4z"/>
<path d="M2465 1481 c-3 -6 3 -9 14 -8 11 0 17 5 15 9 -7 11 -22 10 -29 -1z"/>
<path d="M2602 1462 c-12 -2 -34 -20 -50 -40 -44 -60 -46 -63 -64 -83 -10 -10
-18 -24 -18 -30 0 -6 -7 -17 -15 -26 -8 -8 -13 -19 -10 -24 4 -5 2 -9 -3 -9
-5 0 -15 -14 -22 -31 -10 -24 -11 -36 -2 -50 6 -10 14 -33 18 -51 9 -52 11
-188 2 -188 -13 0 -9 -38 5 -43 9 -4 9 -6 -1 -6 -7 -1 -10 -5 -7 -11 3 -5 -1
-10 -10 -10 -9 0 -14 4 -10 9 3 6 -4 9 -15 8 -26 -2 -25 -11 3 -26 l22 -12
-22 5 c-12 2 -24 -1 -27 -8 -2 -6 -5 -3 -5 7 -1 9 -5 17 -11 17 -6 0 -6 -9 0
-26 15 -40 11 -63 -5 -29 l-14 30 6 -30 c4 -16 6 -35 6 -42 0 -7 4 -10 9 -7
10 6 11 -19 0 -32 -4 -5 -3 -6 3 -1 15 11 25 8 19 -7 -3 -7 2 -16 10 -19 9 -4
16 -12 16 -19 0 -9 -3 -9 -12 0 -20 20 -47 15 -41 -8 6 -22 36 -35 75 -31 18
2 30 -4 38 -18 17 -33 73 -28 113 8 35 34 56 31 33 -5 -21 -31 -20 -34 9 -21
19 9 23 17 19 37 -4 20 -3 22 5 10 8 -12 11 -12 11 -1 0 8 7 11 18 9 10 -3 24
1 31 9 7 8 19 12 27 9 8 -3 14 0 14 7 0 8 4 7 10 -3 9 -13 11 -13 19 0 18 29
48 60 54 54 3 -4 13 1 22 10 13 12 21 14 37 5 13 -7 18 -7 14 -1 -3 6 -2 13 4
17 6 4 7 12 3 18 -4 7 1 5 11 -3 16 -13 20 -12 31 3 7 10 12 26 10 35 -2 9 -4
20 -4 23 -2 10 -82 89 -91 89 -5 0 -20 11 -34 25 -14 14 -32 25 -40 25 -28 0
-29 39 -2 71 14 17 26 37 26 45 0 8 6 17 13 20 8 3 -8 26 -44 63 -62 63 -79
103 -79 184 0 26 -5 47 -11 47 -6 0 -8 8 -4 19 9 30 -30 43 -93 33z m88 -692
c0 -5 -5 -10 -11 -10 -5 0 -7 5 -4 10 3 6 8 10 11 10 2 0 4 -4 4 -10z m-20
-26 c0 -3 -10 -18 -21 -32 -12 -15 -19 -20 -15 -12 3 8 9 23 12 33 6 16 24 25
24 11z m-280 -68 c0 -3 -4 -8 -10 -11 -5 -3 -10 -1 -10 4 0 6 5 11 10 11 6 0
10 -2 10 -4z"/>
<path d="M1540 1351 c0 -6 4 -12 8 -15 5 -3 9 1 9 9 0 8 -4 15 -9 15 -4 0 -8
-4 -8 -9z"/>
<path d="M2396 1325 c4 -10 2 -13 -7 -10 -8 3 -35 -15 -61 -39 -26 -24 -50
-41 -53 -38 -3 3 -5 -6 -5 -19 0 -19 2 -21 10 -9 6 10 10 11 10 3 0 -7 5 -13
11 -13 5 0 8 4 5 9 -3 4 6 6 19 3 32 -6 74 34 92 86 15 44 16 52 3 32 -6 -10
-10 -11 -10 -2 0 6 -4 12 -10 12 -5 0 -7 -7 -4 -15z"/>
<path d="M1580 1320 c19 -13 30 -13 30 0 0 6 -10 10 -22 10 -19 0 -20 -2 -8
-10z"/>
<path d="M1668 1307 c12 -7 19 -17 15 -22 -4 -4 -3 -5 3 -2 7 4 40 -4 75 -17
51 -19 59 -25 45 -33 -13 -7 8 -14 86 -27 57 -10 115 -16 128 -13 18 3 14 5
-13 6 -52 2 -177 31 -177 41 0 20 -35 41 -99 60 -78 23 -96 25 -63 7z"/>
<path d="M1841 1274 c0 -11 3 -14 6 -6 3 7 2 16 -1 19 -3 4 -6 -2 -5 -13z"/>
<path d="M1915 1270 c11 -5 29 -9 40 -9 l20 0 -20 9 c-11 5 -29 9 -40 9 l-20
0 20 -9z"/>
<path d="M1283 1252 c0 -10 6 -19 13 -19 6 0 9 9 6 19 -2 10 -8 18 -13 18 -4
0 -7 -8 -6 -18z"/>
<path d="M1312 1207 c-6 -7 -7 -19 -3 -26 6 -9 10 -5 13 13 6 30 5 31 -10 13z"/>
<path d="M2185 1019 c-15 -24 -11 -89 6 -108 9 -10 25 -41 35 -70 10 -28 24
-51 31 -51 6 0 17 -2 25 -3 7 -2 11 -2 8 0 -3 2 -5 21 -3 43 1 22 -2 42 -8 45
-5 4 -9 12 -9 18 0 7 4 6 10 -3 16 -24 12 -8 -15 60 -14 35 -31 67 -38 72 -17
11 -35 10 -42 -3z"/>
<path d="M1969 994 c-8 -9 -21 -13 -35 -10 -13 4 -29 0 -38 -9 -8 -8 -25 -15
-38 -16 -13 0 -17 -3 -10 -6 6 -2 10 -9 6 -14 -3 -5 3 -9 13 -10 10 0 13 -3 7
-5 -14 -6 -6 -44 14 -63 7 -8 11 -23 8 -36 -4 -15 0 -27 12 -36 15 -13 16 -12
4 3 -14 17 -8 43 7 34 4 -3 8 1 8 9 0 8 -5 13 -10 12 -5 -1 -12 5 -14 13 -4
13 -3 13 6 0 6 -8 11 -11 11 -6 0 5 6 3 13 -3 8 -6 16 -8 19 -6 3 3 3 -6 1
-20 -3 -15 -1 -25 6 -25 7 0 9 -5 6 -10 -4 -6 -11 -7 -17 -4 -7 4 -8 2 -4 -5
6 -8 12 -9 20 -2 7 6 17 7 21 3 5 -4 5 -1 1 6 -10 16 2 15 19 -2 11 -10 11
-16 2 -25 -9 -9 -7 -11 8 -5 11 4 26 11 33 17 8 6 12 6 12 -2 0 -6 -4 -11 -8
-11 -5 0 -9 -6 -9 -14 0 -14 16 -14 56 -1 15 5 18 1 13 -22 -2 -16 -11 -36
-20 -45 -14 -16 -13 -18 2 -18 9 0 15 4 12 9 -3 5 1 14 9 21 12 10 20 9 42 -5
28 -18 28 -18 10 2 -11 13 -13 20 -5 20 7 0 21 4 31 8 12 5 17 2 17 -11 0 -16
2 -17 10 -4 14 22 14 22 -27 66 -55 58 -65 80 -72 157 -5 59 -9 71 -26 74 -47
9 -81 9 -94 -1 -11 -8 -13 -8 -7 2 10 17 -9 15 -25 -4z m209 -257 c-7 -8 -19
-14 -26 -14 -11 0 -10 4 4 14 10 7 22 13 26 13 5 0 3 -6 -4 -13z"/>
<path d="M1812 915 c0 -16 2 -22 5 -12 2 9 2 23 0 30 -3 6 -5 -1 -5 -18z"/>
<path d="M1473 893 c4 -3 1 -13 -6 -22 -11 -14 -10 -14 5 -2 16 12 16 31 1 31
-4 0 -3 -3 0 -7z"/>
<path d="M2340 886 c0 -9 7 -16 16 -16 9 0 14 5 12 12 -6 18 -28 21 -28 4z"/>
<path d="M1923 698 c8 -13 20 -22 26 -20 6 1 11 -5 11 -14 0 -8 4 -13 9 -10 5
4 21 -7 34 -24 14 -16 30 -30 35 -30 5 0 12 -9 15 -19 6 -26 101 -79 154 -87
24 -3 40 -10 38 -15 -3 -4 8 -7 25 -6 16 1 30 6 30 11 0 6 7 1 15 -10 8 -11
15 -14 15 -6 0 6 5 12 11 12 6 0 9 -7 5 -15 -6 -18 -5 -18 26 -6 13 5 43 6 66
1 29 -5 50 -3 68 6 32 17 37 17 28 2 -9 -14 16 3 88 62 59 48 97 92 58 68 -11
-7 -20 -16 -20 -21 0 -4 -4 -6 -8 -3 -9 5 -130 -27 -159 -42 -11 -6 -57 -14
-104 -18 l-84 -6 -140 67 c-77 37 -167 85 -199 107 -48 31 -56 35 -43 16z"/>
<path d="M2182 659 c-19 -30 -11 -32 11 -3 10 13 14 24 10 24 -5 0 -14 -9 -21
-21z"/>
<path d="M2268 603 c-24 -6 -5 -25 40 -41 l33 -11 -18 29 c-17 30 -22 32 -55
23z"/>
<path d="M2023 394 c2 -13 -1 -25 -7 -28 -6 -2 0 -5 14 -5 14 -1 36 -9 49 -18
18 -12 22 -13 16 -2 -8 12 -6 12 8 0 9 -7 17 -9 17 -3 0 5 7 13 16 16 8 3 13
2 11 -2 -3 -4 1 -13 9 -20 8 -7 14 -9 14 -5 0 4 6 1 13 -7 15 -19 49 -20 63
-1 8 11 10 6 6 -19 -4 -28 -2 -32 12 -27 9 4 16 1 16 -6 0 -9 3 -8 9 1 7 11 9
10 14 -3 5 -12 11 -14 26 -6 14 8 21 7 25 -2 4 -6 4 -1 2 13 l-5 25 17 -22
c15 -19 22 -21 54 -14 20 5 44 16 53 25 9 9 20 16 25 16 5 0 17 14 27 30 9 17
23 30 31 30 9 0 11 7 8 23 l-6 22 11 -22 c7 -13 16 -23 21 -23 5 0 1 11 -8 25
l-17 26 -26 -23 c-17 -16 -21 -17 -11 -4 14 18 13 18 -10 11 -14 -5 -34 -8
-45 -7 -31 3 -134 -21 -129 -30 6 -9 -26 1 -43 15 -9 6 -18 6 -27 -2 -14 -12
-46 -5 -46 9 0 4 -16 7 -35 5 -19 -2 -37 0 -40 5 -5 8 -51 18 -111 25 -22 2
-25 -1 -21 -21z m195 -69 c-3 -3 -9 2 -12 12 -6 14 -5 15 5 6 7 -7 10 -15 7
-18z"/>
<path d="M2542 338 c-17 -17 -15 -29 3 -22 8 4 13 10 10 14 -3 5 1 11 7 13 7
3 8 6 3 6 -6 1 -16 -4 -23 -11z"/>
<path d="M2345 3320 c3 -5 11 -10 16 -10 6 0 7 5 4 10 -3 6 -11 10 -16 10 -6
0 -7 -4 -4 -10z"/>
<path d="M2581 3220 c26 -21 19 -26 -13 -9 -12 7 -18 7 -14 1 3 -6 0 -13 -6
-15 -7 -3 6 -6 29 -6 34 -1 41 2 37 14 -4 9 -15 20 -25 25 -29 16 -33 11 -8
-10z"/>
<path d="M2710 1810 c-8 -5 -10 -10 -5 -10 6 0 17 5 25 10 8 5 11 10 5 10 -5
0 -17 -5 -25 -10z"/>
<path d="M4957 5078 c5 -68 41 -76 115 -25 27 17 48 40 48 50 0 15 -11 17 -83
17 l-83 0 3 -42z"/>
<path d="M1125 5050 c3 -5 8 -10 11 -10 2 0 4 5 4 10 0 6 -5 10 -11 10 -5 0
-7 -4 -4 -10z"/>
<path d="M1062 5034 c-7 -8 -8 -14 -3 -14 10 0 25 19 20 25 -2 1 -10 -3 -17
-11z"/>
<path d="M4825 4910 c-3 -5 1 -10 9 -10 9 0 16 5 16 10 0 6 -4 10 -9 10 -6 0
-13 -4 -16 -10z"/>
<path d="M1188 4893 c6 -2 18 -2 25 0 6 3 1 5 -13 5 -14 0 -19 -2 -12 -5z"/>
<path d="M5060 4820 c0 -5 5 -10 10 -10 6 0 10 5 10 10 0 6 -4 10 -10 10 -5 0
-10 -4 -10 -10z"/>
<path d="M5015 4760 c-3 -5 -1 -10 4 -10 6 0 11 5 11 10 0 6 -2 10 -4 10 -3 0
-8 -4 -11 -10z"/>
<path d="M157 4699 c7 -7 15 -10 18 -7 3 3 -2 9 -12 12 -14 6 -15 5 -6 -5z"/>
<path d="M4800 4669 c0 -5 5 -7 10 -4 6 3 10 8 10 11 0 2 -4 4 -10 4 -5 0 -10
-5 -10 -11z"/>
<path d="M56 4531 c-7 -11 22 -36 31 -28 3 4 -2 9 -11 13 -9 3 -13 10 -10 15
3 5 3 9 0 9 -3 0 -7 -4 -10 -9z"/>
<path d="M5099 758 c-14 -12 -14 -22 2 -98 l17 -85 1 98 c1 53 0 97 -2 97 -2
0 -10 -6 -18 -12z"/>
<path d="M5025 740 c-3 -5 3 -10 15 -10 12 0 18 5 15 10 -3 6 -10 10 -15 10
-5 0 -12 -4 -15 -10z"/>
<path d="M5048 623 c7 -3 16 -2 19 1 4 3 -2 6 -13 5 -11 0 -14 -3 -6 -6z"/>
<path d="M5102 163 c-7 -49 -16 -105 -19 -125 -5 -34 -3 -38 16 -38 20 0 21 4
21 125 0 69 -1 125 -3 125 -2 0 -9 -39 -15 -87z"/>
</g>
</svg>
